<?xml version="1.0" encoding="utf-8"?><!-- Generator: Adobe Illustrator 15.0.2, SVG Export Plug-In  --><!DOCTYPE svg PUBLIC "-//W3C//DTD SVG 1.1//EN" "http://www.w3.org/Graphics/SVG/1.1/DTD/svg11.dtd" [<!ENTITY ns_flows "http://ns.adobe.com/Flows/1.0/">]><svg version="1.1" xmlns="http://www.w3.org/2000/svg" xmlns:xlink="http://www.w3.org/1999/xlink" xmlns:a="http://ns.adobe.com/AdobeSVGViewerExtensions/3.0/" x="0px" y="0px" width="100px" height="100px" viewBox="0 0 247 247" overflow="visible" enable-background="new 0 0 247 247" xml:space="preserve"><defs></defs><polyline fill="#fff" points="126.489,147.12 26.653,246.956 0,220.303 99.836,120.466 126.489,147.12 "/><path fill="#fff" d="M95.022,26.067c-34.757,34.757-34.756,91.107,0,125.865c34.757,34.756,91.108,34.756,125.865,0c34.756-34.758,34.756-91.108,0-125.865C186.132-8.688,129.779-8.688,95.022,26.067z M191.833,122.667c-19.27,19.27-48.683,18.67-67.667,0.667C104.833,105,102.517,75.649,122.5,55.667c18.908-18.908,50.595-19.07,69.333-0.333C210.167,73.667,211.456,103.044,191.833,122.667z"/><rect fill="none" width="246.954" height="246.956"/></svg>